HIERARCHY
ROOT Hips
{
	OFFSET 0.00000 0.00000 0.00000
	CHANNELS 6 Xposition Yposition Zposition Zrotation Yrotation Xrotation 
	JOINT LHipJoint
	{
		OFFSET 0 0 0
		CHANNELS 3 Zrotation Yrotation Xrotation
		JOINT LeftHip
		{
			OFFSET 1.53139 -1.83434 0.76626
			CHANNELS 3 Zrotation Yrotation Xrotation
			JOINT LeftKnee
			{
				OFFSET 2.56112 -7.03663 0.00000
				CHANNELS 3 Zrotation Yrotation Xrotation
				JOINT LeftAnkle
				{
					OFFSET 2.59983 -7.14299 0.00000
					CHANNELS 3 Zrotation Yrotation Xrotation
					JOINT LeftToe
					{
						OFFSET 0.13742 -0.37757 2.00054
						CHANNELS 3 Zrotation Yrotation Xrotation
						End Site
						{
							OFFSET 0.00000 -0.00000 1.02897
						}
					}
				}
			}
		}
	}
	JOINT RHipJoint
	{
		OFFSET 0 0 0
		CHANNELS 3 Zrotation Yrotation Xrotation
		JOINT RightHip
		{
			OFFSET -1.40122 -1.83435 0.76627
			CHANNELS 3 Zrotation Yrotation Xrotation
			JOINT RightKnee
			{
				OFFSET -2.54052 -6.98003 0.00000
				CHANNELS 3 Zrotation Yrotation Xrotation
				JOINT RightAnkle
				{
					OFFSET -2.63179 -7.23079 0.00000
					CHANNELS 3 Zrotation Yrotation Xrotation
					JOINT RightToe
					{
						OFFSET -0.24131 -0.66299 2.03908
						CHANNELS 3 Zrotation Yrotation Xrotation
						End Site
						{
							OFFSET -0.00000 -0.00000 1.07391
						}
					}
				}
			}
		}
	}
	JOINT lowerback
	{
		OFFSET 0 0 0
		CHANNELS 3 Zrotation Yrotation Xrotation
		JOINT Chest
		{
			OFFSET 0.01174 2.10302 -0.29778
			CHANNELS 3 Zrotation Yrotation Xrotation
			JOINT Chest2
			{
				OFFSET 0.00772 2.13227 -0.01247
				CHANNELS 3 Zrotation Yrotation Xrotation
				JOINT lowerneck
				{
					OFFSET 0 0 0
					CHANNELS 3 Zrotation Yrotation Xrotation
					JOINT Neck
					{
						OFFSET -0.09219 1.60848 0.31481
						CHANNELS 3 Zrotation Yrotation Xrotation
						JOINT Head
						{
							OFFSET 0.13974 1.65456 -0.31134
							CHANNELS 3 Zrotation Yrotation Xrotation
							End Site
							{
								OFFSET 0.04742 1.69515 -0.14578
							}
						}
					}
				}
				JOINT LeftCollar
				{
					OFFSET 0 0 0
					CHANNELS 3 Zrotation Yrotation Xrotation
					JOINT LeftShoulder
					{
						OFFSET 3.24909 1.02882 -0.23993
CHANNELS 3 Zrotation Xrotation Yrotation
						JOINT LeftElbow
						{
OFFSET 0 -5.329550 -0.000000
CHANNELS 3 Zrotation Xrotation Yrotation
							JOINT LeftWrist
							{
OFFSET 0 -3.692320 -0.000000
CHANNELS 3 Zrotation Xrotation Yrotation
								JOINT lhand
								{
									OFFSET 0 0 0
CHANNELS 3 Zrotation Xrotation Yrotation
									JOINT LFingers
									{
OFFSET 0 -0.536600 -0.000000
CHANNELS 3 Zrotation Xrotation Yrotation
										End Site
										{
OFFSET 0 -0.432620 -0.000000
										}
									}
								}
								JOINT LThumb
								{
OFFSET 0 0.000000 0.000000
CHANNELS 3 Zrotation Xrotation Yrotation
									End Site
									{
OFFSET 0 -0.439220 0.439220
									}
								}
							}
						}
					}
				}
				JOINT RightCollar
				{
					OFFSET 0 0 0
					CHANNELS 3 Zrotation Yrotation Xrotation
					JOINT RightShoulder
					{
						OFFSET -3.21387 0.93002 -0.34594
CHANNELS 3 Zrotation Xrotation Yrotation
						JOINT RightElbow
						{
OFFSET 0 -5.234310 0.000000
CHANNELS 3 Zrotation Xrotation Yrotation
							JOINT RightWrist
							{
OFFSET 0 -3.553010 -0.000000
CHANNELS 3 Zrotation Xrotation Yrotation
								JOINT rhand
								{
									OFFSET 0 0 0
CHANNELS 3 Zrotation Xrotation Yrotation
									JOINT RFingers
									{
OFFSET 0 -0.772520 -0.000000
CHANNELS 3 Zrotation Xrotation Yrotation
										End Site
										{
OFFSET 0 -0.622830 -0.000000
										}
									}
								}
								JOINT RThumb
								{
OFFSET 0 0.000000 0.000000
CHANNELS 3 Zrotation Xrotation Yrotation
									End Site
									{
OFFSET 0 -0.632340 0.632340
									}
								}
							}
						}
					}
				}
			}
		}
	}
}
MOTION
Frames: 7
Frame Time: 0.008333333333333333
2.891591 17.702901 -7.962145 -178.440708 241.039618 -541.542806 0.000000 0.000000 0.000000 -27.547938 -6.835473 13.290744 0.761260 5.570820 15.544457 -0.920728 -19.442827 -3.482737 0.054455 1.503858 4.136377 0.000000 0.000000 0.000000 12.830514 10.824418 -20.674644 -1.846557 -8.538587 24.362573 0.556688 14.182815 -0.623177 -0.179496 2.642918 -7.291589 -2.959679 0.333095 11.396230 1.065157 0.098813 1.109179 2.773355 0.111184 -5.239592 -9.542246 -2.554584 -18.264335 5.002167 -2.710366 31.994720 3.173146 -1.817995 14.222742 0.000000 0.000000 0.000000 4.577861 -1.126450 -35.332276 25.268948 -36.476827 8.449670 16.111479 9.589451 -23.317401 0.000000 0.000000 0.000000 -7.125000 0.000000 0.000000 -13.620679 53.626035 2.932864 0.000000 0.000000 0.000000 -3.187651 7.206489 16.494133 -17.420684 -27.408832 -4.279288 -19.466103 1.013090 -6.901598 0.000000 0.000000 0.000000 7.125000 0.000000 0.000000 5.356367 22.673566 2.889904
1.776286 17.840015 -7.628007 -181.683710 237.429666 -539.397910 0.000000 0.000000 0.000000 -25.532756 -10.307535 11.604722 2.301200 9.463927 27.260194 -1.265014 -19.470229 7.684804 0.089377 1.926028 5.301375 0.000000 0.000000 0.000000 16.319781 9.092109 -15.963867 -2.025573 -8.919218 25.542924 0.206274 11.632471 -4.738738 -0.122057 2.243811 -6.180196 -0.389999 0.371115 10.783219 1.473667 0.488332 1.327588 1.686970 0.246106 -4.677591 -9.148336 -2.510968 -18.332531 4.549778 -2.599875 32.331658 2.948292 -1.782375 14.365290 0.000000 0.000000 0.000000 3.616122 0.810819 -30.696215 20.498587 -31.237140 5.788297 19.249842 12.767142 -23.408976 0.000000 0.000000 0.000000 -7.125000 0.000000 0.000000 -10.497057 54.308001 2.420623 0.000000 0.000000 0.000000 -2.480769 6.783872 13.143936 -15.533180 -24.883396 -3.447306 -19.413499 2.311416 -6.580159 0.000000 0.000000 0.000000 7.125000 0.000000 0.000000 5.398568 23.014747 2.870633
0.691370 17.963361 -7.318316 -183.481548 232.297541 -537.882280 0.000000 0.000000 0.000000 -21.040597 -13.199836 3.370681 4.891951 13.259458 40.350546 2.052450 -13.330097 34.533249 1.289842 7.194221 20.292838 0.000000 0.000000 0.000000 19.632673 6.900970 -10.902460 -1.782998 -8.398622 23.931506 -0.107551 8.555390 -7.903304 -0.003971 0.406020 -1.115526 1.103240 0.376698 10.217886 1.800275 0.681631 1.158711 1.159147 0.318813 -4.532269 -9.704285 -3.063931 -18.358321 5.121877 -3.353145 31.919735 3.142335 -2.065233 14.282911 0.000000 0.000000 0.000000 3.535542 3.296965 -27.267624 16.597799 -26.324010 3.907549 17.667217 15.056824 -24.610134 0.000000 0.000000 0.000000 -7.125000 0.000000 0.000000 -12.655569 55.205691 3.208335 0.000000 0.000000 0.000000 -2.192933 7.386010 14.270561 -15.564471 -24.926493 -3.460348 -19.501477 2.529181 -6.093288 0.000000 0.000000 0.000000 7.125000 0.000000 0.000000 5.340396 23.524436 2.776940
-0.235846 17.988059 -6.954067 -184.673080 228.267661 -537.540893 0.000000 0.000000 0.000000 -17.316911 -13.154140 -6.248770 7.782545 15.956522 51.774928 -0.912513 -18.717406 16.203769 0.225379 -3.047392 -8.411392 0.000000 0.000000 0.000000 22.208320 3.332209 -6.382923 -1.520329 -7.785985 22.065892 -0.356530 6.914600 -10.970427 -0.052456 1.377087 -3.788474 2.804087 0.657521 11.274589 1.956515 1.303551 0.950834 0.264681 0.585334 -5.313495 -9.819090 -3.225187 -18.110818 5.175258 -3.509520 31.165048 3.142566 -2.104713 13.916229 0.000000 0.000000 0.000000 4.451615 5.597005 -26.079879 14.588213 -23.569139 3.059484 16.026901 18.185646 -23.769913 0.000000 0.000000 0.000000 -7.125000 0.000000 0.000000 -13.916370 54.057956 3.144524 0.000000 0.000000 0.000000 -3.240241 7.339867 18.143965 -16.566353 -26.282481 -3.893350 -18.452512 1.035684 -6.378616 0.000000 0.000000 0.000000 7.125000 0.000000 0.000000 6.109336 23.267411 3.217366
-1.058153 17.982852 -6.540978 -184.540943 224.653593 -537.816040 0.000000 0.000000 0.000000 -15.848653 -11.853715 -14.547506 7.892312 16.039366 52.173592 -0.566485 -13.487511 2.029187 0.215347 -2.980020 -8.223674 0.000000 0.000000 0.000000 23.622519 1.661103 -2.741462 -1.495217 -7.724221 21.879507 -0.648012 4.371921 -14.354367 -0.001798 -0.096749 0.265723 3.557119 1.242412 11.441272 1.814510 2.159061 1.291983 -0.438659 0.994593 -5.000930 -9.696435 -3.578511 -18.889521 5.231292 -3.959111 31.257192 3.067978 -2.249563 14.171663 0.000000 0.000000 0.000000 3.825057 6.424196 -20.521489 13.706388 -22.313420 2.715584 20.639088 21.050685 -23.868301 0.000000 0.000000 0.000000 -7.125000 0.000000 0.000000 -9.263702 55.046404 2.300215 0.000000 0.000000 0.000000 -4.301575 3.916920 18.030337 -16.265187 -25.878859 -3.760925 -18.372038 1.751869 -6.841205 0.000000 0.000000 0.000000 7.125000 0.000000 0.000000 6.159573 22.786592 3.311859
-1.804651 17.940378 -6.046115 -184.751060 221.993885 -537.405045 0.000000 0.000000 0.000000 -15.672827 -11.579382 -18.987615 5.193932 13.595451 41.646959 -0.032790 -8.253966 -5.102406 0.359468 -3.847673 -10.648964 0.000000 0.000000 0.000000 24.870803 -0.786461 0.001775 -1.383443 -7.442229 21.032348 -0.747988 2.860352 -15.620976 -0.088707 1.915443 -5.272154 4.137767 1.881208 11.935585 1.914921 3.129418 0.979494 -0.831312 1.446791 -5.549703 -9.921463 -3.676787 -18.574003 5.457991 -4.096231 31.033331 3.174278 -2.292499 14.030170 0.000000 0.000000 0.000000 3.457386 8.650091 -22.799218 14.042151 -22.794830 2.844497 19.409355 16.394614 -23.831621 0.000000 0.000000 0.000000 -7.125000 0.000000 0.000000 -10.515604 54.766373 2.544117 0.000000 0.000000 0.000000 -6.564699 2.149895 20.235526 -17.356797 -27.325671 -4.249879 -17.907994 -0.408994 -8.591477 0.000000 0.000000 0.000000 7.125000 0.000000 0.000000 6.472018 20.982714 3.749058
-2.509678 17.956031 -5.462559 -184.663891 219.366673 -536.586594 0.000000 0.000000 0.000000 -16.188104 -11.959994 -19.452457 1.759743 8.343127 23.763245 0.034609 -0.228626 -3.422528 0.017944 0.735100 2.020422 0.000000 0.000000 0.000000 25.913793 -2.484736 3.289935 -1.066715 -6.565983 18.435735 -0.697567 0.355125 -15.665998 -0.179770 2.730292 -7.528627 4.516887 2.149106 11.212167 1.615217 3.475408 1.023918 -1.376761 1.620199 -5.043320 -9.666427 -3.891850 -19.018627 5.813087 -4.513993 30.492693 3.187712 -2.364634 13.933643 0.000000 0.000000 0.000000 3.395504 9.584189 -23.902494 14.779887 -23.838620 3.136422 17.763495 17.420698 -22.134465 0.000000 0.000000 0.000000 -7.125000 0.000000 0.000000 -11.468198 52.746029 2.210559 0.000000 0.000000 0.000000 -7.811113 -0.967546 21.298225 -18.365651 -28.622852 -4.723141 -18.976272 -1.141883 -7.742987 0.000000 0.000000 0.000000 7.125000 0.000000 0.000000 5.706396 21.812755 3.192968
